#N canvas 74 219 552 483 10;
#N canvas 594 289 647 424 note-onoff 0;
#X obj 186 323 outlet;
#X obj 185 83 moses 1;
#X msg 187 287 \$1 127;
#X msg 251 285 \$1 0;
#X obj 185 183 f;
#X obj 260 40 inlet note_number;
#X obj 185 120 b;
#X obj 250 120 b;
#X obj 377 40 inlet note_offset;
#X obj 185 40 inlet gate;
#X obj 186 215 +;
#X obj 251 253 f 0;
#X text 264 178 store last value \, otherwise octave shifts will result
in stuck notes;
#X connect 1 0 7 0;
#X connect 1 1 6 0;
#X connect 2 0 0 0;
#X connect 3 0 0 0;
#X connect 4 0 10 0;
#X connect 5 0 4 1;
#X connect 6 0 4 0;
#X connect 7 0 11 0;
#X connect 8 0 10 1;
#X connect 9 0 1 0;
#X connect 10 0 11 1;
#X connect 10 0 2 0;
#X connect 11 0 3 0;
#X restore 124 308 pd note-onoff;
#N canvas 770 338 450 300 retrig 0;
#X obj 104 13 inlet;
#X obj 108 265 outlet;
#X obj 154 13 inlet;
#X obj 122 102 spigot;
#X obj 105 158 f;
#X connect 0 0 3 1;
#X connect 0 0 4 0;
#X connect 2 0 3 0;
#X connect 3 0 4 0;
#X connect 4 0 1 0;
#X restore 125 177 pd retrig;
#X obj 202 39 inlet match;
#X obj 109 38 inlet stream;
#X obj 124 349 outlet;
#X obj 125 218 ../tools/sep-insert;
#X obj 124 255 ../tools/de-dupe;
#X obj 371 39 inlet retrig;
#X obj 288 40 inlet note;
#X obj 453 40 inlet offset;
#X obj 128 104 ../tools/dynsel-symbol \$1;
#X obj 274 167 f \$2;
#X obj 292 140 loadbang;
#X connect 0 0 4 0;
#X connect 1 0 5 0;
#X connect 2 0 10 1;
#X connect 3 0 10 0;
#X connect 5 0 6 0;
#X connect 6 0 0 0;
#X connect 7 0 1 1;
#X connect 8 0 0 1;
#X connect 9 0 0 2;
#X connect 10 0 1 0;
#X connect 11 0 0 1;
#X connect 12 0 11 0;
