#N canvas 220 35 1005 712 10;
#X obj 54 53 hid;
#X obj 115 14 tgl 15 0 empty empty empty 17 7 0 10 -262144 -1 -1 1
1;
#X text 1039 459 harmonica;
#X obj 114 214 print;
#X obj 56 85 route key;
#X msg 52 15 open 0;
#X obj 27 127 print;
#X msg 150 124 key_10;
#X obj 113 165 key2midi key_10 60;
#X text 240 137 mapped to the 'g' key on the mac keyboard;
#X connect 0 0 4 0;
#X connect 1 0 0 0;
#X connect 4 0 8 0;
#X connect 4 0 6 0;
#X connect 5 0 0 0;
#X connect 7 0 8 1;
#X connect 8 0 3 0;
